<svg id="Calque_1" data-name="Calque 1" xmlns="http://www.w3.org/2000/svg" xmlns:xlink="http://www.w3.org/1999/xlink" viewBox="0 0 156.38 28.69"><defs><style>.cls-1{fill:url(#Dégradé_sans_nom_30);}.cls-2{fill:url(#Dégradé_sans_nom_31);}.cls-3{fill:none;}.cls-4{clip-path:url(#clip-path);}.cls-5{fill:#0153ff;}.cls-5,.cls-6,.cls-7,.cls-9{fill-rule:evenodd;}.cls-6{fill:#fff;}.cls-7{fill:#5febfc;}.cls-8{mask:url(#mask);}.cls-9{fill:#003cb5;}.cls-10{mask:url(#mask-2);}</style><linearGradient id="Dégradé_sans_nom_30" x1="-46.6" y1="1246.45" x2="-21.48" y2="1276.55" gradientTransform="translate(51.04 -1265.81)" gradientUnits="userSpaceOnUse"><stop offset="0" stop-color="#fff"/><stop offset="1"/></linearGradient><linearGradient id="Dégradé_sans_nom_31" x1="-33.7" y1="1260.86" x2="-36.03" y2="1279.31" gradientTransform="translate(51.04 -1263.44)" xlink:href="#Dégradé_sans_nom_30"/><clipPath id="clip-path"><rect class="cls-3" x="-43.2" y="-1928.79" width="482.06" height="3209.34"/></clipPath><mask id="mask" x="8.84" y="1.89" width="36.56" height="11.86" maskUnits="userSpaceOnUse"><rect class="cls-1" x="8.84" y="1.89" width="36.56" height="11.86"/></mask><mask id="mask-2" x="8.84" y="2.38" width="14" height="13.73" maskUnits="userSpaceOnUse"><rect class="cls-2" x="8.84" y="2.38" width="14" height="13.73"/></mask></defs><g class="cls-4"><path class="cls-5" d="M8.84,2.39a10,10,0,0,0-3,17.46C16.65,28.29,29.41-1.42,45.4,3.62A12.8,12.8,0,0,0,39,1.89H12a9.88,9.88,0,0,0-3.14.5"/><path class="cls-6" d="M63.12,12.27V8h2.11c1.53,0,2,.44,2,2.12s-.47,2.13-2,2.15Zm2.16-6.56a49.35,49.35,0,0,0-5.14.17V19.43h3v-5a22.91,22.91,0,0,0,2.56.15c3.36,0,4.55-.94,4.55-4.44S69,5.71,65.28,5.71Z"/><path class="cls-6" d="M81.76,9.75h-3.1L76.87,16c-.1.41-.23,1-.39,1.45h-.26c-.08-.49-.17-1-.29-1.45L74.12,9.75H71l3.16,9a1,1,0,0,0,.94.7h.55l0,.08a3.76,3.76,0,0,1-2.88,2.16L73,23.38c3.18.37,4.7-1.92,5.34-3.81Z"/><path class="cls-6" d="M90.07,9.48h-.51a6.31,6.31,0,0,0-3.93,1.71l-.26-1.44H83.12v9.68H86V12.84a8.85,8.85,0,0,1,3-.67h.78Z"/><path class="cls-6" d="M93.8,16.11c0-.55.24-.9.94-.92h2.61v1.36a4.24,4.24,0,0,1-2.41.94c-.79,0-1.14-.31-1.14-1Zm2.65-6.63a34,34,0,0,0-5,.47l.28,2c1.55-.1,3.16-.16,4.08-.16,1.24,0,1.58.28,1.59,1.26v.43H93.9c-1.85,0-3,.91-3,2.46v1c0,1.81,1.36,2.79,3.16,2.79A4.65,4.65,0,0,0,97.67,18L98,19.43h2.3V13C100.26,10.3,99,9.48,96.45,9.48Z"/><path class="cls-6" d="M106.21,9.48c-3,0-4.12.74-4.12,2.77,0,1.53.51,2.41,2.35,2.94l2.42.65c1,.27,1.37.31,1.37.9s-.45.73-2.43.73c-1.3,0-2.65,0-3.36,0l-.18,1.89a27.34,27.34,0,0,0,4.34.33c3.13,0,4.44-.57,4.44-3,0-1.68-.74-2.35-2.39-2.82l-2.48-.67c-.92-.26-1.27-.28-1.27-.87s.35-.64,1.86-.64c1.22,0,2.5,0,3.73,0l.2-1.87a31.23,31.23,0,0,0-4.48-.37"/><path class="cls-6" d="M119.63,9.48a6.52,6.52,0,0,0-4,1.59,12.22,12.22,0,0,0,.17-2V5.69h-2.91V19.43h2.91V12.82a5.72,5.72,0,0,1,2.69-.89c.7,0,.94.26.94,1.14v6.36h2.89V12.17a2.42,2.42,0,0,0-2.71-2.69"/><path class="cls-6" d="M134.35,9.75h-3.1L129.46,16c-.09.41-.23,1-.39,1.45h-.25c-.08-.49-.18-1-.3-1.45l-1.8-6.27h-3.11l3.16,9a1,1,0,0,0,1,.7h.55l0,.08a3.78,3.78,0,0,1-2.89,2.16l.24,1.71c3.18.37,4.69-1.92,5.34-3.81Z"/><path class="cls-6" d="M144.9,9.75H142v6.7a5.05,5.05,0,0,1-2.41.8c-.79,0-1.06-.29-1-1.14V9.75h-2.91V17a2.4,2.4,0,0,0,2.73,2.69,6.24,6.24,0,0,0,4-1.59l.21,1.33h2.3Z"/><path class="cls-6" d="M151.07,11.7h2.69V9.75h-2.69V7h-2.89V9.75l-1.71.1V11.7h1.71v5.18A2.54,2.54,0,0,0,151,19.67a10.52,10.52,0,0,0,2.73-.39l-.32-2h-1.23c-.79,0-1.06-.25-1.06-1Z"/><path class="cls-7" d="M8.84,2.39C22.63,3.77,25.51,27.56,39,27.56A12.84,12.84,0,1,0,39,1.89H12a9.88,9.88,0,0,0-3.14.5"/><g class="cls-8"><path class="cls-9" d="M22.84,13.74C29.61,7.81,37.07,1,45.4,3.62A12.8,12.8,0,0,0,39,1.89H12a9.88,9.88,0,0,0-3.14.5c6.24.62,10.24,5.83,14,11.35"/></g><g class="cls-10"><path class="cls-9" d="M8.84,2.38s5.23,1.17,11.25,13.74l2.75-2.38C19.08,8.22,15.08,3,8.84,2.38"/></g></g></svg>